#!OML:ASF F:\VICON\USERDATA\INSTALL\rory3\rory3.ASF
:FULLY-SPECIFIED
:DEGREES
128
root 0.650611 17.8403 -5.77824 -1.13774 -2.32854 -5.50186
lowerback 10.2039 1.47075 3.40842
upperback -0.611477 2.49357 1.84273
thorax -6.31289 1.1412 -0.368561
lowerneck -17.7981 -3.48976 -1.26849
upperneck 21.6138 -4.68343 0.681004
head 9.84972 -2.1929 -0.18855
rclavicle -1.39165e-014 -8.94531e-015
rhumerus -22.9077 -20.6682 -79.1087
rradius 32.0244
rwrist -0.574863
rhand -18.8735 23.9452
rfingers 7.12502
rthumb 7.42725 -5.90447
lclavicle -1.39165e-014 -8.94531e-015
lhumerus -36.2026 9.67864 79.6902
lradius 18.8842
lwrist 3.3746
lhand -25.1209 15.4768
lfingers 7.12502
lthumb 1.39482 45.452
rfemur 9.01619 5.89677 31.8633
rtibia 35.0125
rfoot -12.5344 -5.75702
rtoes -11.7904
lfemur -26.7594 -4.26401 -15.4282
ltibia 25.6029
lfoot 1.05691 -0.911019
ltoes 0.536758
129
root 0.670511 17.8815 -5.5771 -1.28237 -2.06416 -5.59355
lowerback 10.0084 1.40243 3.56601
upperback -0.473535 2.40625 1.84587
thorax -6.0525 1.09908 -0.432775
lowerneck -17.7584 -3.52884 -1.15833
upperneck 21.5854 -4.75512 0.623361
head 9.82834 -2.22425 -0.235388
rclavicle -2.0999e-014 -1.0138e-014
rhumerus -23.1895 -21.4916 -78.9151
rradius 31.6905
rwrist -0.185499
rhand -18.8232 23.6538
rfingers 7.12502
rthumb 7.47578 -6.19408
lclavicle -2.0999e-014 -1.0138e-014
lhumerus -36.2735 9.47476 79.7392
lradius 19.2392
lwrist 3.73587
lhand -25.0319 15.0464
lfingers 7.12502
lthumb 1.48078 45.021
rfemur 8.36172 5.25747 31.6568
rtibia 37.0015
rfoot -10.1986 -4.93211
rtoes -11.8348
lfemur -26.2303 -3.97609 -15.6767
ltibia 26.5105
lfoot 0.164201 -1.04515
ltoes 0.00635556
130
root 0.694508 17.9149 -5.38012 -1.41756 -1.89468 -5.69306
lowerback 9.93853 1.38016 3.78845
upperback -0.385069 2.39453 1.82998
thorax -5.91045 1.08952 -0.568923
lowerneck -17.9373 -3.59314 -1.17259
upperneck 21.8333 -4.86806 0.716766
head 9.95408 -2.26284 -0.222475
rclavicle 8.78224e-015 1.24737e-014
rhumerus -23.6254 -22.3829 -78.6417
rradius 31.4189
rwrist 0.184646
rhand -18.6482 23.5683
rfingers 7.12502
rthumb 7.64469 -6.27351
lclavicle 8.78224e-015 1.24737e-014
lhumerus -36.2179 9.20596 79.8139
lradius 19.3242
lwrist 3.97869
lhand -24.9352 14.5492
lfingers 7.12502
lthumb 1.57417 44.5231
rfemur 7.56494 4.61999 31.3746
rtibia 39.1848
rfoot -7.48808 -3.90797
rtoes -9.94803
lfemur -25.7717 -3.78283 -15.8458
ltibia 27.4394
lfoot -0.631108 -1.22209
ltoes -1.66363
131
root 0.718885 17.9239 -5.19148 -1.56275 -1.8629 -5.82537
lowerback 10.1259 1.35969 4.00656
upperback -0.411892 2.40759 1.87669
thorax -6.03797 1.08698 -0.6498
lowerneck -17.9025 -3.59391 -1.39225
upperneck 21.9105 -4.86204 0.931951
head 9.98747 -2.25234 -0.110645
rclavicle -3.58853e-014 -4.09993e-014
rhumerus -24.2411 -23.0148 -78.2792
rradius 31.1547
rwrist 0.44935
rhand -18.2633 23.8938
rfingers 7.12502
rthumb 8.0162 -5.93422
lclavicle -3.58853e-014 -4.09993e-014
lhumerus -36.2847 9.20848 79.8003
lradius 19.3224
lwrist 3.97123
lhand -25.06 14.174
lfingers 7.12502
lthumb 1.45365 44.1488
rfemur 6.58123 4.05335 31.1108
rtibia 41.5816
rfoot -3.95722 -2.60102
rtoes -6.11328
lfemur -25.3108 -3.70074 -15.8746
ltibia 28.04
lfoot -0.906158 -1.47431
ltoes -2.73263
132
root 0.742726 17.9188 -5.01128 -1.61792 -1.8378 -5.81501
lowerback 10.2606 1.33039 4.07085
upperback -0.426882 2.38347 1.85672
thorax -6.12763 1.0707 -0.707211
lowerneck -18.0167 -3.57073 -1.37273
upperneck 22.0057 -4.8367 0.933738
head 10.0421 -2.23699 -0.112936
rclavicle 1.17896e-014 6.5102e-015
rhumerus -24.6901 -23.4279 -78.1064
rradius 30.9202
rwrist 0.646263
rhand -18.3036 24.2855
rfingers 7.12502
rthumb 7.97728 -5.54396
lclavicle 1.17896e-014 6.5102e-015
lhumerus -36.3503 9.05918 79.8087
lradius 19.6287
lwrist 4.20304
lhand -24.9605 16.1792
lfingers 7.12502
lthumb 1.54971 46.1533
rfemur 5.25768 3.54394 30.6902
rtibia 44.0782
rfoot -0.287725 -1.5506
rtoes -0.857681
lfemur -25.0495 -3.60564 -16.0584
ltibia 28.5777
lfoot -1.07199 -1.77876
ltoes -1.20261
133
root 0.764843 17.9225 -4.83832 -1.68321 -1.8974 -5.56832
lowerback 10.3965 1.31444 3.80982
upperback -0.374208 2.33482 1.84257
thorax -6.15982 1.0547 -0.57184
lowerneck -18.0818 -3.58696 -1.56111
upperneck 21.9738 -4.83095 1.04511
head 10.0512 -2.23662 -0.0431196
rclavicle 8.87542e-016 8.4235e-015
rhumerus -24.8376 -23.5864 -77.9939
rradius 30.6314
rwrist 0.639787
rhand -17.8258 24.4341
rfingers 7.12502
rthumb 8.43842 -5.37736
lclavicle 8.87542e-016 8.4235e-015
lhumerus -36.3168 8.70026 80.0969
lradius 20.0941
lwrist 4.62504
lhand -24.8531 19.9676
lfingers 7.12502
lthumb 1.65349 49.9409
rfemur 3.78086 3.18515 30.0271
rtibia 46.6297
rfoot 2.61698 -0.401864
rtoes 3.53382
lfemur -24.6876 -3.66413 -16.3851
ltibia 28.7592
lfoot -1.01585 -1.74105
ltoes 2.45817
134
root 0.784306 17.9773 -4.65637 -1.66444 -2.05599 -5.12276
lowerback 10.3258 1.36272 3.32136
upperback -0.312451 2.32775 1.75515
thorax -6.06936 1.06745 -0.386083
lowerneck -17.9227 -3.54036 -1.56028
upperneck 21.7642 -4.76274 1.04395
head 9.94557 -2.20837 -0.029029
rclavicle -8.95759e-015 1.50797e-014
rhumerus -24.9281 -23.8372 -77.9052
rradius 30.2655
rwrist 0.69289
rhand -17.485 24.6229
rfingers 7.12502
rthumb 8.76732 -5.17501
lclavicle -8.95759e-015 1.50797e-014
lhumerus -36.107 8.17848 80.4099
lradius 20.2561
lwrist 4.93559
lhand -25.0808 19.798
lfingers 7.12502
lthumb 1.43355 49.773
rfemur 2.27197 3.07036 29.21
rtibia 49.0581
rfoot 5.26879 0.656794
rtoes 6.09463
lfemur -23.7297 -3.1362 -17.1829
ltibia 28.8423
lfoot -2.0052 -1.61986
ltoes 0.451128
135
root 0.800256 18.0116 -4.47518 -1.81071 -2.33572 -4.67045
lowerback 10.463 1.51582 2.87783
upperback -0.264549 2.47118 1.58795
thorax -6.10235 1.14871 -0.337832
lowerneck -17.7892 -3.54776 -1.36193
upperneck 21.588 -4.79478 0.912035
head 9.84919 -2.22496 -0.107632
rclavicle -3.52334e-014 1.08089e-015
rhumerus -25.3385 -24.0778 -77.8458
rradius 30.171
rwrist 0.924756
rhand -17.9854 24.2178
rfingers 7.12502
rthumb 8.28447 -5.59975
lclavicle -3.52334e-014 1.08089e-015
lhumerus -35.8707 7.19559 80.7834
lradius 20.3607
lwrist 5.50842
lhand -25.3619 17.7769
lfingers 7.12502
lthumb 1.162 47.7535
rfemur 0.941644 3.0507 28.4455
rtibia 51.4758
rfoot 7.54913 1.6143
rtoes 10.2395
lfemur -22.7886 -2.89231 -17.8147
ltibia 28.7085
lfoot -2.45129 -1.28455
ltoes -0.106891
136
root 0.814395 18.0341 -4.29936 -1.98387 -2.39907 -4.17129
lowerback 10.6285 1.56573 2.34293
upperback -0.271107 2.46908 1.44785
thorax -6.21833 1.16048 -0.189625
lowerneck -17.689 -3.53953 -1.17583
upperneck 21.5985 -4.78629 0.703549
head 9.82313 -2.23107 -0.2077
rclavicle -3.67363e-015 1.71079e-014
rhumerus -25.8907 -24.075 -77.7512
rradius 30.1021
rwrist 0.887649
rhand -18.4401 23.5652
rfingers 7.12502
rthumb 7.84557 -6.26921
lclavicle -3.67363e-015 1.71079e-014
lhumerus -35.9029 6.39124 81.0519
lradius 20.6573
lwrist 5.93911
lhand -25.5098 16.5908
lfingers 7.12502
lthumb 1.01921 46.5681
rfemur -0.417847 2.80485 27.6495
rtibia 53.8762
rfoot 8.17287 1.93318
rtoes 12.0836
lfemur -21.9958 -2.81224 -18.505
ltibia 28.7301
lfoot -2.73184 -1.1535
ltoes 0.283807
137
root 0.828688 18.0535 -4.12425 -2.00512 -2.26488 -3.72413
lowerback 10.5134 1.51252 1.80123
upperback -0.197387 2.32237 1.4005
thorax -6.09687 1.10658 0.0920042
lowerneck -17.7448 -3.48728 -1.24231
upperneck 21.6402 -4.6843 0.663166
head 9.84799 -2.19338 -0.198442
rclavicle 1.91544e-014 1.99018e-015
rhumerus -25.9122 -24.2494 -77.6264
rradius 29.4884
rwrist 1.0817
rhand -18.4178 23.7761
rfingers 7.12502
rthumb 7.86713 -6.05754
lclavicle 1.91544e-014 1.99018e-015
lhumerus -35.8024 5.72179 81.4299
lradius 21.0387
lwrist 6.47328
lhand -25.7488 15.9804
lfingers 7.12502
lthumb 0.788372 45.9587
rfemur -1.91899 2.3456 26.9231
rtibia 56.2934
rfoot 6.69357 1.28817
rtoes 7.61789
lfemur -21.2499 -2.90153 -19.1299
ltibia 28.554
lfoot -3.15584 -1.07434
ltoes 0.178612
138
root 0.843409 18.0631 -3.9606 -2.04114 -2.19051 -3.37159
lowerback 10.621 1.48143 1.47738
upperback -0.101678 2.23454 1.29145
thorax -6.06483 1.0721 0.171616
lowerneck -17.9371 -3.46279 -1.18649
upperneck 21.696 -4.66707 0.671168
head 9.90223 -2.17788 -0.20676
rclavicle 9.76685e-015 -8.1921e-015
rhumerus -25.7208 -24.6552 -77.5741
rradius 28.7725
rwrist 1.5305
rhand -18.2362 24.1681
rfingers 7.12502
rthumb 8.04233 -5.65893
lclavicle 9.76685e-015 -8.1921e-015
lhumerus -35.4392 5.05901 81.6768
lradius 21.28
lwrist 6.8009
lhand -25.7487 15.5096
lfingers 7.12502
lthumb 0.788447 45.4879
rfemur -3.41011 2.0274 26.375
rtibia 58.6241
rfoot 6.13223 0.303108
rtoes 8.98228
lfemur -20.5695 -2.74296 -19.6629
ltibia 28.4231
lfoot -3.56122 -1.11541
ltoes 0.421975
139
root 0.857748 18.0703 -3.80127 -2.1209 -2.11019 -3.01993
lowerback 10.8566 1.41554 1.17456
upperback -0.0352059 2.10552 1.17867
thorax -6.13445 1.01557 0.238515
lowerneck -18.216 -3.36502 -1.06009
upperneck 21.7847 -4.53799 0.559678
head 9.97837 -2.11822 -0.254838
rclavicle 2.64244e-015 9.7684e-015
rhumerus -25.6168 -25.0377 -77.5653
rradius 28.233
rwrist 2.1843
rhand -18.3331 24.0633
rfingers 7.12502
rthumb 7.94888 -5.76723
lclavicle 2.64244e-015 9.7684e-015
lhumerus -35.2228 4.30699 81.9434
lradius 21.7885
lwrist 7.1082
lhand -25.7798 16.8832
lfingers 7.12502
lthumb 0.758385 46.8616
rfemur -4.87908 1.68241 25.8305
rtibia 60.7832
rfoot 4.78713 -1.103
rtoes 6.70805
lfemur -19.8878 -2.43538 -20.2158
ltibia 28.3223
lfoot -4.01959 -1.27029
ltoes 0.560876
140
root 0.87037 18.0861 -3.63562 -2.20107 -1.95807 -2.76044
lowerback 10.9719 1.35019 0.948372
upperback 0.0317695 1.98653 1.11285
thorax -6.134 0.962999 0.31368
lowerneck -18.271 -3.29964 -1.03762
upperneck 21.6633 -4.42698 0.469158
head 9.94142 -2.07652 -0.274361
rclavicle 2.33177e-014 2.74105e-016
rhumerus -25.702 -25.1249 -77.5376
rradius 27.9475
rwrist 2.52284
rhand -18.4615 23.8384
rfingers 7.12502
rthumb 7.82489 -5.99685
lclavicle 2.33177e-014 2.74105e-016
lhumerus -35.1002 3.41176 82.2909
lradius 22.61
lwrist 7.27515
lhand -25.7167 20.1725
lfingers 7.12502
lthumb 0.819354 50.1507
rfemur -6.27606 1.17413 25.3532
rtibia 62.6912
rfoot 2.95747 -2.5069
rtoes 3.23486
lfemur -19.0924 -2.36472 -20.6347
ltibia 28.1673
lfoot -4.48204 -1.28666
ltoes 0.683535
141
root 0.880683 18.1154 -3.46788 -2.34335 -1.91014 -2.5528
lowerback 11.0554 1.30046 0.654304
upperback 0.124246 1.88394 1.13592
thorax -6.09345 0.921979 0.518965
lowerneck -18.0483 -3.27447 -1.12472
upperneck 21.481 -4.33902 0.364704
head 9.83393 -2.05838 -0.278169
rclavicle 1.61893e-014 1.52319e-014
rhumerus -25.8109 -25.1805 -77.4606
rradius 27.7701
rwrist 2.96998
rhand -18.4025 23.6618
rfingers 7.12502
rthumb 7.88185 -6.17125
lclavicle 1.61893e-014 1.52319e-014
lhumerus -34.888 3.7205 81.9781
lradius 23.1309
lwrist 4.79093
lhand -22.5791 21.7884
lfingers 7.12502
lthumb 3.8496 51.7334
rfemur -7.5693 0.718106 24.9365
rtibia 64.362
rfoot 1.36786 -3.21836
rtoes 2.38574
lfemur -18.1494 -2.47587 -20.9501
ltibia 28.0147
lfoot -5.06293 -0.94646
ltoes 1.30853
